<svg width="356" height="222" viewBox="0 0 356 222" fill="none" xmlns="http://www.w3.org/2000/svg">
<path fill-rule="evenodd" clip-rule="evenodd" d="M134.342 219.219C193.526 235.9 222.324 171.887 273.034 176.757C300.793 179.423 356.124 192.935 356 94.5078C355.691 30.9633 297.251 15.0509 236.987 47.6391C219.254 54.5895 205.253 52.4355 190.052 45.5295C174.851 38.6236 155.301 7.79369 118.455 1.45119C7.57204 -17.6354 -87.3025 156.75 134.342 219.219Z" fill="#6028FF"/>
<path fill-rule="evenodd" clip-rule="evenodd" d="M274.986 59.3515C276.097 58.8105 278.089 59.8596 276.933 61.5484C274.374 65.2877 284.271 72.7572 281.094 66.1751C280.754 65.4713 279.012 60.6046 281.477 63.1171C283.942 65.6296 287.378 76.733 285.156 80.5587C283.205 83.916 278.044 85.5131 270.997 85.7022L270.68 85.7094L270.53 85.7186C266.376 85.912 263.227 83.3357 261.194 78.3183L261.096 78.0736C259.038 72.8214 259.602 68.6113 262.931 65.7729C262.991 65.7214 263.056 65.6751 263.124 65.6345L263.228 65.5779L274.986 59.3515Z" fill="white"/>
<path fill-rule="evenodd" clip-rule="evenodd" d="M275.583 61.1327L263.846 66.851C261.033 69.2503 260.554 72.8186 262.411 77.5561C263.062 79.2182 264.692 83.1777 264.692 81.6224C264.692 81.1365 275.583 74.0017 277.673 74.6998C279.605 75.3452 276.134 69.5266 275.161 66.851L275.583 60.9865L275.906 60.4022" fill="#E7EAEE"/>
<path fill-rule="evenodd" clip-rule="evenodd" d="M259.923 65.4243C260.704 65.4243 256.283 67.5076 256.511 71.3501C256.739 75.1926 259.735 82.2743 259.006 82.5533C258.278 82.8324 256.896 80.7679 256.618 80.0376C254.885 75.4936 254.557 73.6395 254.619 70.989C254.7 67.5195 256.52 65.4243 259.923 65.4243Z" fill="#E7EAEE"/>
<path d="M282.644 69.2302C282.644 73.0453 281.278 76.1379 279.592 76.1379C277.907 76.1379 276.542 73.0453 276.542 69.2302C276.542 65.4152 277.907 62.3225 279.592 62.3225C281.278 62.3225 282.644 65.4152 282.644 69.2302Z" fill="#E7EAEE"/>
<path fill-rule="evenodd" clip-rule="evenodd" d="M66.4842 142.063C66.4842 130.077 67.8128 124.866 82.0811 118.324C111.325 106.478 111.325 106.021 167.348 84.3127C182.164 78.6015 213.4 92.283 226.982 86.5492C236.038 82.7266 244.505 79.8883 251.986 76.0973C252.711 80.8385 257.394 88.8657 259.043 90.2456C250.283 92.0881 241.809 94.9376 233.62 98.7939C215.92 107.13 226.409 104.858 198.373 131.357C195.997 133.602 187.266 138.722 174.641 144.055C174.641 144.055 149.217 140.634 139.02 136.383C128.643 132.057 112.919 118.324 112.919 118.324C112.919 118.324 94.579 130.316 84.0357 135.706C79.1008 138.228 66.4842 142.063 66.4842 142.063Z" fill="white"/>
<path fill-rule="evenodd" clip-rule="evenodd" d="M66.4842 135.834C66.4842 133.021 66.1876 131.057 66.4842 128.885C67.451 121.805 71.2399 118.182 82.1592 113.177C111.403 101.33 111.325 99.7925 167.348 78.084C182.164 72.3728 213.4 86.0543 226.982 80.3205C236.038 76.498 244.505 73.6596 251.986 69.8686C252.008 70.0045 251.229 76.4836 251.229 76.4836C251.229 76.4836 232.761 86.2577 220.544 88.3303C207.564 90.5325 189.735 80.3205 171.933 85.343C144.823 92.9917 82.3485 117.032 74.9579 123.057C69.1507 127.79 66.4842 135.834 66.4842 135.834Z" fill="#E7EAEE"/>
<path fill-rule="evenodd" clip-rule="evenodd" d="M276.933 61.5484C278.089 59.8596 276.097 58.8105 274.986 59.3515L263.228 65.5779L263.124 65.6345C263.056 65.6751 262.991 65.7214 262.931 65.7729C259.602 68.6113 259.038 72.8214 261.096 78.0736L261.194 78.3183C263.195 83.2571 266.278 85.8307 270.336 85.7256L270.307 85.8433C269.855 87.726 269.057 91.0456 265.645 91.0456C262.585 91.0456 255.34 82.6936 254.222 77.7815C252.68 71.0035 253.258 67.5613 255 65.3144C256.565 63.2946 259.37 63.813 261.109 64.1344C261.941 64.2881 262.529 64.3967 262.62 64.1609C262.903 63.4323 262.543 62.6119 261.815 62.3285C258.93 61.2038 255.603 61.235 253.252 63.09C251.728 64.2927 250.756 66.1187 250.375 68.5921C244.826 71.3568 238.846 73.8429 232.435 76.508C230.475 77.3228 228.475 78.1545 226.434 79.0159C224.14 79.9843 221.261 79.7161 217.683 79.3829C216.718 79.2929 215.701 79.1982 214.631 79.1218C211.229 78.8788 208.315 78.4676 202.301 77.4242L196.915 76.4789C190.785 75.416 187.046 74.8987 183.245 74.6745L182.807 74.6503C177.733 74.3876 173.595 74.8255 170.179 76.1426C154.383 82.2633 130.17 91.8837 116.637 97.2607C110.77 99.5919 106.91 101.125 106.614 101.23L105.796 101.543C104.96 101.865 104.141 102.182 103.333 102.497L102.806 102.703C95.6012 105.521 88.6552 108.421 79.9092 112.284L77.9597 113.148C70.8793 116.394 66.9433 120.476 65.3221 125.849C64.1302 129.799 64.135 133.24 64.9622 141.114L64.992 141.393C62.4106 141.982 59.8127 142.455 57.1981 142.813C38.2535 145.403 22.4634 142.41 8.76826 134.551C8.71173 134.519 8.61405 134.46 8.48528 134.382C7.07048 133.525 1.91541 130.405 6.33407 135.424C11.1565 140.902 42.5379 152.079 63.2297 147.883L63.815 147.801C82.1665 145.172 94.3662 134.883 110.716 121.093L112.24 119.808L112.303 119.754L112.439 119.889C129.888 137.043 144.804 149.595 170.667 149.595L171.46 149.592C196.746 149.409 222.083 136.489 233.746 118.775L233.907 118.527L234.357 118.93C252.772 135.313 267.173 145.28 291.31 144.055C316.129 142.796 341.437 133.894 353.358 122.031C353.911 121.48 353.914 120.584 353.365 120.029C352.815 119.474 351.921 119.471 351.367 120.022C340.004 131.33 322.259 137.629 298.078 138.856C273.962 140.08 252.822 132.243 234.576 115.308C233.924 114.702 232.881 114.844 232.414 115.604C221.804 132.855 204.766 141.893 181.138 142.735C189.699 138.79 196.565 134.878 199.149 132.564L199.342 132.386C206.233 125.873 211.247 120.69 215.225 116.122L215.697 115.577C216.676 114.442 218.316 112.434 219.729 110.704C220.791 109.404 221.725 108.26 222.153 107.763L222.296 107.601C223.178 106.625 223.998 105.868 224.991 105.128C226.684 103.866 229.003 102.568 233.047 100.632L234.221 100.075C242.147 96.3421 250.343 93.5647 258.811 91.7422C261.221 93.6096 263.852 94.3847 266.3 93.7996C269.502 93.0344 271.416 90.3901 272.034 86.1863C272.061 86.0072 272.052 85.8309 272.014 85.6644C278.539 85.3532 283.3 83.7523 285.156 80.5587C287.378 76.733 283.942 65.6296 281.477 63.1171C279.012 60.6046 280.754 65.4713 281.094 66.1751C284.271 72.7572 283.809 76.1403 282.106 79.0718C280.751 81.4031 276.957 83.318 270.609 83.4456L270.385 83.4572C267.528 83.5807 264.782 80.6116 263.16 76.4723L263.072 76.2433C261.578 72.2953 262.476 70.0668 264.518 68.1468L264.632 68.0415L273.678 63.635L273.667 63.7564C273.589 64.8083 273.62 65.8984 273.759 67.0253C274.039 69.29 275.163 72.2695 277.119 76.0218C277.481 76.7147 278.334 76.9828 279.025 76.6207C279.244 76.5061 278.859 75.33 278.311 73.6571C277.127 70.0414 275.184 64.1049 276.933 61.5484ZM255.781 88.6504C255.921 88.8321 256.062 89.0097 256.205 89.183L255.62 89.3236C248.095 91.1306 240.079 93.0557 233.02 96.3802C232.022 96.8503 231.2 97.224 230.488 97.548C227.827 98.7587 226.695 99.2739 223.57 101.529C219.552 104.429 216.103 108.752 211.999 113.897C208.258 118.587 203.972 123.959 198.214 129.559L197.404 130.327C195.667 131.968 185.665 138.484 179.684 142.38L179.058 142.788C178.524 142.796 177.987 142.8 177.447 142.8C167.945 142.8 159.036 141.613 150.716 139.238L178.684 128.444L178.77 128.408C179.44 128.097 181.715 126.018 179.495 126.614C179.318 126.661 179.018 126.739 178.611 126.846L178.607 126.847C173.873 128.079 154.711 133.066 146.934 137.336C146.709 137.459 146.48 137.633 146.269 137.836C137.035 134.643 128.565 129.909 120.85 123.632L172.441 100.2C171.586 103.153 171.819 107.231 173.076 112.349C172.706 112.767 172.601 113.387 172.868 113.923C178.142 124.496 184.906 127.983 192.684 123.753C200.396 119.559 201.761 110.866 197.077 98.1794C196.752 97.2988 195.677 96.9736 194.92 97.527L189.787 101.279C186.954 95.8005 182.854 93.5747 177.719 94.9428C177.206 95.0796 176.728 95.2531 176.284 95.4628C176.119 95.4687 175.952 95.504 175.791 95.5716L116.906 120.228C115.713 119.137 114.539 118.007 113.384 116.837C112.863 116.309 112.024 116.274 111.461 116.757C97.188 129.012 82.3254 137.069 66.8638 140.945C66.8574 140.342 66.8425 139.657 66.8264 138.916C66.7308 134.504 66.593 128.152 67.9554 125.849C70.5895 121.397 72.7504 118.649 79.1198 115.729C89.5926 111.247 171.364 80.4186 171.364 80.4186C176.848 78.3638 183.502 78.7239 196.8 81.0313L201.517 81.8602C207.835 82.9596 210.848 83.3888 214.43 83.6446L214.836 83.6722C220.079 84.0118 224.217 83.0238 227.531 81.6251L228.501 81.2143C236.239 77.9282 243.4 74.6527 249.983 71.3875L250.067 71.3449L250.052 71.7296C249.954 75.0429 250.144 79.0607 251.738 82.6376L251.881 82.9586C252.875 85.1605 254.143 86.6873 255.238 88.0051C255.372 88.1673 255.504 88.3263 255.633 88.483C255.677 88.5364 255.728 88.5932 255.781 88.6504ZM187.884 103.857C185.561 98.5098 182.514 96.5949 178.445 97.679C174.929 98.616 173.822 102.683 175.521 110.398L175.676 111.08L181.876 108.628L181.887 108.624C182.561 108.357 183.316 108.646 183.65 109.271C185.065 111.824 186.159 112.432 187.27 111.808C188.446 111.147 188.816 108.662 187.957 104.222L187.884 103.857ZM195.051 100.935L195.135 101.19L195.333 101.806C198.472 111.796 197.062 118.151 191.336 121.265L191.152 121.364C185.451 124.362 180.606 122.164 176.235 114.259L176.103 114.018L181.821 111.703L181.907 111.83C183.853 114.685 186.18 115.667 188.652 114.277L188.776 114.205C191.148 112.774 191.731 109.497 190.876 104.485L190.798 104.045L195.051 100.935Z" fill="#00160A"/>
<path d="M111.236 163.507C115.269 159.345 110.741 161.559 110.085 161.982C92.2481 173.484 75.2791 180.481 58.8484 181.429C42.4854 182.373 27.9506 177.39 15.5082 168.044C14.867 167.563 13.9549 167.712 13.4992 168.372C13.2155 168.783 13.0393 169.215 12.8624 169.649C12.5286 170.467 12.1921 171.292 11.1269 171.997C9.49682 173.076 6.69788 174.958 5.41907 176.265C4.14026 177.572 6.61159 177.254 7.31099 176.907C9.98428 175.584 11.8345 174.446 12.9036 173.44L13.1574 173.196C13.7474 172.617 14.3215 171.973 14.8802 171.263L14.9636 171.155L15.3819 171.454C28.0031 180.405 42.5097 187.244 58.8484 186.301C75.8003 185.324 107.204 167.668 111.236 163.507Z" fill="#00160A"/>
<path d="M206.724 167.226C207.297 166.695 207.297 170.478 206.724 171.008C199.87 177.347 188.084 182.108 171.366 183.131L170.858 183.161C153.891 184.14 131.951 173.882 129.999 171.915C128.047 169.949 131.295 171.067 131.951 171.49C141.373 177.562 154.28 180.149 170.696 179.202C187.091 178.257 200.378 173.095 206.724 167.226Z" fill="#00160A"/>
</svg>
